PathFileType	4	(X/Y/Z)	C:/Users/opensim2020/Desktop/walking_exp_matlab/subject03_walking07_straight_04.trc	
DataRate	CameraRate	NumFrames	NumMarkers	Units	OrigDataRate	OrigDataStartFrame	OrigNumFrames	
100.00	100.00	5	46	mm	100.00	3190	265	
Frame#	Time	LFHD			RFHD			LBHD			RBHD			C7			T10			CLAV			STRN			RBAK			LSHO			LUPA			LELB			LFRM			LWRA			LWRB			LFIN			RSHO			RUPA			RELB			RFRM			RWRA			RWRB			RFIN			LASI			RASI			LPSI			RPSI			LTHI			LKNE			LTIB			LANK			LHEE			LTOE			RTHI			RKNE			RTIB			RANK			RHEE			RTOE			*39			*40			*41			*42			*43			*44			*45			
		X1	Y1	Z1	X2	Y2	Z2	X3	Y3	Z3	X4	Y4	Z4	X5	Y5	Z5	X6	Y6	Z6	X7	Y7	Z7	X8	Y8	Z8	X9	Y9	Z9	X10	Y10	Z10	X11	Y11	Z11	X12	Y12	Z12	X13	Y13	Z13	X14	Y14	Z14	X15	Y15	Z15	X16	Y16	Z16	X17	Y17	Z17	X18	Y18	Z18	X19	Y19	Z19	X20	Y20	Z20	X21	Y21	Z21	X22	Y22	Z22	X23	Y23	Z23	X24	Y24	Z24	X25	Y25	Z25	X26	Y26	Z26	X27	Y27	Z27	X28	Y28	Z28	X29	Y29	Z29	X30	Y30	Z30	X31	Y31	Z31	X32	Y32	Z32	X33	Y33	Z33	X34	Y34	Z34	X35	Y35	Z35	X36	Y36	Z36	X37	Y37	Z37	X38	Y38	Z38	X39	Y39	Z39	X40	Y40	Z40	X41	Y41	Z41	X42	Y42	Z42	X43	Y43	Z43	X44	Y44	Z44	X45	Y45	Z45	X46	Y46	Z46	

232	2.310	-930.02686	-1101.23743	1594.76379	-1063.22717	-1103.92761	1605.78711	-941.19940	-972.91992	1551.03076	-1070.85583	-981.05060	1561.67139	-1004.62000	-945.50439	1394.56616	-1007.98505	-919.97656	1078.62085	-1004.92334	-1067.51428	1318.49646	-1004.76593	-1114.29858	1155.41736	-1105.36560	-896.56281	1219.58167	-848.04974	-1019.76654	1350.69287	-781.21265	-992.48798	1151.42126	-770.74854	-984.05432	1028.62817	-768.97565	-991.95068	898.08038	-797.47980	-994.99518	778.27161	-748.07190	-969.29150	787.24872	-755.69672	-973.74756	702.73010	-1165.08276	-1023.91443	1346.88562	-1252.84180	-1048.79041	1132.76147	-1273.16504	-1085.55835	1028.75842	-1272.19397	-1151.14771	909.93793	-1233.20166	-1216.16614	837.74438	-1275.32495	-1189.33386	817.33221	-1264.95715	-1241.40027	765.63696	-899.74432	-1100.27527	918.60754	-1138.52942	-1084.78198	920.89636	-936.85986	-935.21765	934.91064	-1085.93164	-927.40741	949.33356	-852.22375	-1103.93445	617.19250	-898.35297	-1168.94055	454.82800	-898.04700	-1179.24023	263.35733	-931.42517	-1240.95349	61.47482	-975.89117	-1215.81116	24.13876	-930.41449	-1394.59851	48.05930	-1178.20850	-982.91052	634.61780	-1148.40833	-957.33417	454.48550	-1152.70215	-850.89282	290.40933	-1107.03223	-749.32886	96.85868	-1056.66772	-696.77948	78.08746	-1091.68494	-876.30731	28.90436	-982.35303	-1019.79718	1658.22620																		 
233	2.320	-928.38495	-1110.01099	1595.22632	-1061.26013	-1112.08069	1606.38928	-939.60156	-981.74286	1550.82263	-1069.08325	-989.74817	1561.55127	-1002.43359	-954.63000	1394.29443	-1005.53082	-931.24237	1078.06543	-1003.21130	-1077.19531	1318.88855	-1003.44409	-1124.77930	1156.10425	-1102.85852	-906.16473	1219.16602	-846.16730	-1029.74756	1350.77673	-779.84637	-1002.84259	1151.19446	-769.69769	-994.74274	1028.47961	-768.38184	-1002.17084	897.74054	-797.05206	-1004.62036	778.05487	-747.54950	-979.42078	786.90961	-755.63489	-983.13953	702.35712	-1163.36011	-1033.04248	1346.82690	-1250.64294	-1057.42859	1132.33862	-1270.92957	-1093.86035	1028.13855	-1270.11157	-1158.84692	908.90442	-1231.37512	-1223.51282	836.17017	-1273.38782	-1196.48560	816.06281	-1263.14844	-1248.02478	763.80829	-898.50085	-1112.00317	918.91345	-1137.32312	-1095.40112	920.43170	-934.65936	-946.88977	935.44312	-1083.85632	-938.18951	949.22906	-851.42413	-1115.10217	618.19049	-897.61371	-1176.03711	454.13687	-897.60840	-1185.77979	263.19089	-929.73425	-1246.02063	61.21186	-974.34863	-1218.16821	25.83659	-931.03668	-1398.59558	40.90100	-1177.27808	-992.43878	634.32629	-1148.04895	-966.50427	454.19540	-1151.97339	-857.42255	291.54593	-1107.39221	-751.66522	100.58855	-1056.90527	-698.87439	82.98502	-1091.82813	-876.74213	28.86332	-977.93982	-1028.73206	1659.39832																		 
234	2.330	-926.69489	-1118.80200	1595.93909	-1059.52917	-1120.58179	1607.25684	-937.43750	-990.91833	1551.01025	-1067.24939	-998.43756	1561.96655	-999.91394	-963.56653	1394.59973	-1003.44012	-941.94666	1078.02063	-1001.49609	-1086.67700	1319.64050	-1002.10327	-1135.23560	1157.11816	-1100.28052	-915.78229	1218.79028	-844.16602	-1039.65906	1351.03479	-778.22083	-1013.51636	1151.22876	-768.43188	-1005.27008	1028.10254	-767.86780	-1012.78912	897.54608	-797.20514	-1014.52954	777.88147	-747.14905	-990.01685	786.64496	-755.73602	-992.99652	702.08813	-1161.48071	-1041.96729	1346.92969	-1248.69995	-1066.12866	1132.22534	-1268.66394	-1102.04968	1027.61389	-1267.97668	-1166.30078	907.91565	-1229.43408	-1230.49731	834.66638	-1271.60559	-1203.29700	814.92102	-1261.48938	-1254.39502	762.15869	-897.34857	-1123.86475	919.66266	-1136.00110	-1105.86292	920.08563	-932.46637	-958.66180	936.28143	-1081.83508	-949.22101	949.36285	-850.66370	-1125.93298	619.62946	-896.18195	-1183.25940	454.47653	-895.04883	-1192.79944	263.64819	-928.49939	-1250.59399	60.62941	-972.29657	-1220.77942	27.56781	-931.52710	-1402.95959	36.58799	-1176.22620	-1002.57129	634.22888	-1147.74207	-976.57910	454.03955	-1151.39612	-863.60486	293.90161	-1107.73853	-754.52094	104.72834	-1056.82190	-701.53436	88.52304	-1091.93164	-877.22754	28.80385	-975.74402	-1037.18457	1658.72485																		 
235	2.340	-924.99762	-1127.62366	1596.85205	-1057.83398	-1129.13245	1608.24255	-935.55450	-999.84119	1551.69202	-1065.22949	-1007.05304	1562.62622	-998.20575	-973.14880	1394.93518	-1001.19281	-952.78937	1078.14819	-999.78546	-1096.19397	1320.61865	-1000.67566	-1145.68469	1158.39929	-1097.74353	-925.26428	1218.77710	-842.22540	-1049.61560	1351.50720	-776.78229	-1024.16528	1151.39465	-767.37872	-1016.43317	1028.25281	-767.34418	-1023.66992	897.58813	-796.98907	-1024.97021	778.10156	-746.80518	-1001.11951	786.62280	-755.86261	-1003.47589	702.10339	-1159.78589	-1050.78772	1347.37524	-1246.03613	-1074.40173	1132.13196	-1266.28955	-1110.17249	1027.27161	-1265.68848	-1173.46375	907.00861	-1227.40222	-1237.23315	833.17535	-1269.51062	-1209.59314	813.71973	-1259.53113	-1260.22729	760.40564	-896.29657	-1135.70935	920.90918	-1134.62500	-1116.34863	920.04865	-930.49036	-970.16559	937.72931	-1079.87073	-960.22656	949.67676	-850.03644	-1136.06372	621.10931	-894.69745	-1190.64221	454.75275	-893.36859	-1199.46399	264.00641	-927.79553	-1254.24646	60.91570	-971.80133	-1222.22046	28.59693	-930.38428	-1406.62634	34.16476	-1175.17688	-1013.27100	634.22064	-1147.67566	-987.64539	453.98322	-1151.12170	-871.02899	296.14807	-1107.77185	-757.61877	109.52954	-1056.46777	-704.91144	94.78062	-1092.03162	-877.77808	28.77310	-976.59363	-1045.03052	1659.45142																		 
236	2.350	-923.29462	-1136.46899	1598.01257	-1056.14722	-1137.68665	1609.44861	-933.62830	-1008.72186	1552.48596	-1063.29846	-1015.65057	1563.53625	-995.52838	-982.10400	1395.79077	-998.94287	-963.64758	1078.57043	-998.05585	-1105.62073	1321.83081	-999.19043	-1156.10339	1160.02002	-1095.03442	-934.67358	1218.90576	-840.26080	-1059.57837	1352.24585	-775.21143	-1035.19226	1151.92944	-766.21741	-1027.74426	1028.58838	-766.89813	-1034.92773	897.88544	-797.05914	-1035.82068	778.55115	-746.46301	-1012.69360	786.86816	-756.16846	-1014.41425	702.31732	-1157.94836	-1059.43347	1348.04773	-1243.66479	-1082.79541	1132.42944	-1263.75427	-1118.19397	1027.23035	-1263.30103	-1180.39526	906.29633	-1225.42249	-1243.73376	831.90442	-1267.37463	-1215.59802	812.69226	-1257.44165	-1265.59412	758.72546	-895.19678	-1147.30615	922.66400	-1133.23486	-1127.31799	920.62482	-928.37909	-981.51208	939.50537	-1078.02295	-970.98871	950.11438	-849.15314	-1145.73779	622.93884	-893.46454	-1198.51538	455.49023	-892.25031	-1205.47180	264.37115	-929.87720	-1255.88733	60.12056	-972.50610	-1222.76550	29.23402	-930.49677	-1408.37732	32.71918	-1174.22620	-1024.47839	634.23761	-1147.99902	-999.49384	453.99484	-1150.95410	-879.01917	298.72745	-1107.73035	-761.74622	114.58791	-1056.01721	-709.06342	101.80479	-1092.07568	-878.40564	28.80834	-972.10608	-1054.07825	1661.44165																		 
